<?xml version="1.0" standalone="no"?><!DOCTYPE svg PUBLIC "-//W3C//DTD SVG 1.1//EN" "http://www.w3.org/Graphics/SVG/1.1/DTD/svg11.dtd"><svg t="1599291579234" class="icon" viewBox="0 0 1024 1024" version="1.1" xmlns="http://www.w3.org/2000/svg" p-id="1524" width="16" height="16" xmlns:xlink="http://www.w3.org/1999/xlink"><defs><style type="text/css"></style></defs><path d="M494.24 781.253a45 45 0 0 1 36.292 0l211.98 93.413-23.335-230.471a45 45 0 0 1 11.215-34.516l154.346-172.74-226.402-49.026a45 45 0 0 1-29.36-21.332L512.385 166.41 395.797 366.58a45 45 0 0 1-29.361 21.333L140.034 436.94 294.38 609.679a45 45 0 0 1 11.215 34.516l-23.335 230.47 211.98-93.412zM247.852 988.18c-31.56 13.908-66.391-11.399-62.917-45.712l29.12-287.61L21.444 439.295c-22.98-25.718-9.675-66.665 24.032-73.964l282.531-61.181L473.501 54.352c17.358-29.803 60.412-29.803 77.77 0l145.494 249.797 282.531 61.18c33.707 7.3 47.012 48.247 24.032 73.965l-192.61 215.564 29.12 287.609c3.473 34.313-31.358 59.62-62.918 45.712L512.386 871.608 247.852 988.179z" p-id="1525"></path></svg>